{
  "accessors": [
    {
      "bufferView": 2,
      "componentType": 5126,
      "count": 18251,
      "max": [
        0.5925279855728149,
        1.2032313346862793,
        0.6837421655654907
      ],
      "min": [
        -0.5925280451774597,
        -0.48480960726737976,
        -0.5095678567886353
      ],
      "type": "VEC3"
    },
    {
      "bufferView": 2,
      "byteOffset": 219012,
      "componentType": 5126,
      "count": 18251,
      "max": [
        1.0,
        1.0,
        1.0
      ],
      "min": [
        -1.0,
        -1.0,
        -1.0
      ],
      "type": "VEC3"
    },
    {
      "bufferView": 1,
      "componentType": 5126,
      "count": 18251,
      "max": [
        0.9883578419685364,
        0.9919975399971008
      ],
      "min": [
        0.006666400004178286,
        0.002458989853039384
      ],
      "type": "VEC2"
    },
    {
      "bufferView": 1,
      "byteOffset": 146008,
      "componentType": 5126,
      "count": 18251,
      "max": [
        0.9883578419685364,
        0.9919975399971008
      ],
      "min": [
        0.006666400004178286,
        0.002458989853039384
      ],
      "type": "VEC2"
    },
    {
      "bufferView": 1,
      "byteOffset": 292016,
      "componentType": 5126,
      "count": 18251,
      "max": [
        0.9883578419685364,
        0.9919975399971008
      ],
      "min": [
        0.006666400004178286,
        0.002458989853039384
      ],
      "type": "VEC2"
    },
    {
      "bufferView": 0,
      "componentType": 5125,
      "count": 99804,
      "type": "SCALAR"
    }
  ],
  "asset": {
    "extras": {
      "author": "Takiri Cube (https://sketchfab.com/TakiriCube)",
      "license": "CC-BY-4.0 (http://creativecommons.org/licenses/by/4.0/)",
      "source": "https://sketchfab.com/3d-models/doraemon-fan-art-d60a33c2a0e0487ca13115f04a65e0ee",
      "title": "Doraemon (Fan Art)"
    },
    "generator": "Sketchfab-16.0.0",
    "version": "2.0"
  },
  "bufferViews": [
    {
      "buffer": 0,
      "byteLength": 399216,
      "name": "floatBufferViews",
      "target": 34963
    },
    {
      "buffer": 0,
      "byteLength": 438024,
      "byteOffset": 399216,
      "byteStride": 8,
      "name": "floatBufferViews",
      "target": 34962
    },
    {
      "buffer": 0,
      "byteLength": 438024,
      "byteOffset": 837240,
      "byteStride": 12,
      "name": "floatBufferViews",
      "target": 34962
    }
  ],
  "buffers": [
    {
      "byteLength": 1275264,
      "uri": "scene.bin"
    }
  ],
  "images": [
    {
      "uri": "textures/M_Doraemon_baseColor.png"
    },
    {
      "uri": "textures/M_Doraemon_metallicRoughness.png"
    }
  ],
  "materials": [
    {
      "doubleSided": true,
      "name": "M_Doraemon",
      "pbrMetallicRoughness": {
        "baseColorTexture": {
          "index": 0
        },
        "metallicRoughnessTexture": {
          "index": 1
        }
      }
    }
  ],
  "meshes": [
    {
      "name": "Object_0",
      "primitives": [
        {
          "attributes": {
            "NORMAL": 1,
            "POSITION": 0,
            "TEXCOORD_0": 2,
            "TEXCOORD_1": 3,
            "TEXCOORD_2": 4
          },
          "indices": 5,
          "material": 0,
          "mode": 4
        }
      ]
    }
  ],
  "nodes": [
    {
      "children": [
        1
      ],
      "matrix": [
        1.0,
        0.0,
        0.0,
        0.0,
        0.0,
        2.220446049250313e-16,
        -1.0,
        0.0,
        0.0,
        1.0,
        2.220446049250313e-16,
        0.0,
        0.0,
        0.0,
        0.0,
        1.0
      ],
      "name": "Sketchfab_model"
    },
    {
      "children": [
        2
      ],
      "name": "root"
    },
    {
      "children": [
        3
      ],
      "matrix": [
        1.0,
        0.0,
        0.0,
        0.0,
        0.0,
        2.220446049250313e-16,
        1.0,
        0.0,
        0.0,
        -1.0,
        2.220446049250313e-16,
        0.0,
        0.0,
        0.0,
        0.0,
        1.0
      ],
      "name": "GLTF_SceneRootNode"
    },
    {
      "children": [
        4
      ],
      "matrix": [
        1.0,
        0.0,
        0.0,
        0.0,
        0.0,
        1.0,
        0.0,
        0.0,
        0.0,
        0.0,
        1.0,
        0.0,
        0.0,
        0.48229366540908813,
        0.0,
        1.0
      ],
      "name": "Doraemon_0"
    },
    {
      "mesh": 0,
      "name": "Object_4"
    }
  ],
  "samplers": [
    {
      "magFilter": 9729,
      "minFilter": 9987,
      "wrapS": 10497,
      "wrapT": 10497
    }
  ],
  "scene": 0,
  "scenes": [
    {
      "name": "Sketchfab_Scene",
      "nodes": [
        0
      ]
    }
  ],
  "textures": [
    {
      "sampler": 0,
      "source": 0
    },
    {
      "sampler": 0,
      "source": 1
    }
  ]
}
